<svg xmlns="http://www.w3.org/2000/svg" viewBox="0 0 900 600">
  <!-- Background -->
  <rect width="900" height="600" fill="#f8f9fa" rx="10" ry="10"/>

  <!-- Title -->
  <text x="450" y="40" font-family="Arial" font-size="24" font-weight="bold" text-anchor="middle" fill="#333">Cancer_RAG System Architecture</text>

  <!-- Data Sources -->
  <rect x="50" y="100" width="160" height="80" rx="10" ry="10" fill="#e6f7ff" stroke="#1890ff" stroke-width="2"/>
  <text x="130" y="145" font-family="Arial" font-size="16" font-weight="bold" text-anchor="middle">PDF Document</text>
  <text x="130" y="165" font-family="Arial" font-size="12" text-anchor="middle">national-cancer-plan-508.pdf</text>

  <!-- Data Processing Pipeline -->
  <rect x="50" y="220" width="160" height="280" rx="10" ry="10" fill="#fff2e8" stroke="#fa8c16" stroke-width="2"/>
  <text x="130" y="245" font-family="Arial" font-size="16" font-weight="bold" text-anchor="middle">DataProcessor</text>

  <!-- Processing Components -->
  <rect x="70" y="260" width="120" height="50" rx="5" ry="5" fill="#fff7e6" stroke="#fa8c16" stroke-width="1"/>
  <text x="130" y="290" font-family="Arial" font-size="12" font-weight="bold" text-anchor="middle">PDFDocumentHandler</text>

  <rect x="70" y="320" width="120" height="50" rx="5" ry="5" fill="#fff7e6" stroke="#fa8c16" stroke-width="1"/>
  <text x="130" y="350" font-family="Arial" font-size="12" font-weight="bold" text-anchor="middle">TextPreprocessor</text>

  <rect x="70" y="380" width="120" height="50" rx="5" ry="5" fill="#fff7e6" stroke="#fa8c16" stroke-width="1"/>
  <text x="130" y="410" font-family="Arial" font-size="12" font-weight="bold" text-anchor="middle">DocumentChunker</text>

  <rect x="70" y="440" width="120" height="50" rx="5" ry="5" fill="#fff7e6" stroke="#fa8c16" stroke-width="1"/>
  <text x="130" y="470" font-family="Arial" font-size="12" font-weight="bold" text-anchor="middle">VectorStoreCreator</text>

  <!-- Vector Store -->
  <rect x="300" y="220" width="160" height="120" rx="10" ry="10" fill="#f6ffed" stroke="#52c41a" stroke-width="2"/>
  <text x="380" y="250" font-family="Arial" font-size="16" font-weight="bold" text-anchor="middle">Pinecone</text>
  <text x="380" y="270" font-family="Arial" font-size="12" text-anchor="middle">Vector Database</text>
  <text x="380" y="290" font-family="Arial" font-size="12" text-anchor="middle">Index: cancer-rag</text>
  <text x="380" y="310" font-family="Arial" font-size="12" text-anchor="middle">Embeddings: all-MiniLM-L6-v2</text>
  <text x="380" y="330" font-family="Arial" font-size="12" text-anchor="middle">Dimensions: 384</text>

  <!-- Retrieval System -->
  <rect x="300" y="380" width="160" height="120" rx="10" ry="10" fill="#f9f0ff" stroke="#722ed1" stroke-width="2"/>
  <text x="380" y="410" font-family="Arial" font-size="16" font-weight="bold" text-anchor="middle">VectorStoreRetriever</text>
  <text x="380" y="430" font-family="Arial" font-size="12" text-anchor="middle">Search Type: similarity</text>
  <text x="380" y="450" font-family="Arial" font-size="12" text-anchor="middle">Top K: 4</text>
  <text x="380" y="470" font-family="Arial" font-size="12" text-anchor="middle">Distance Metric: cosine</text>

  <!-- LLM Setup -->
  <rect x="550" y="220" width="160" height="120" rx="10" ry="10" fill="#f0f5ff" stroke="#2f54eb" stroke-width="2"/>
  <text x="630" y="250" font-family="Arial" font-size="16" font-weight="bold" text-anchor="middle">LLMSetup</text>
  <text x="630" y="270" font-family="Arial" font-size="12" text-anchor="middle">Model: gpt-3.5-turbo</text>
  <text x="630" y="290" font-family="Arial" font-size="12" text-anchor="middle">Temperature: 0</text>
  <text x="630" y="310" font-family="Arial" font-size="12" text-anchor="middle">Provider: OpenAI</text>

  <!-- Chatbot -->
  <rect x="550" y="380" width="160" height="120" rx="10" ry="10" fill="#fff0f6" stroke="#eb2f96" stroke-width="2"/>
  <text x="630" y="410" font-family="Arial" font-size="16" font-weight="bold" text-anchor="middle">Chatbot</text>
  <text x="630" y="430" font-family="Arial" font-size="12" text-anchor="middle">ConversationalRetrievalChain</text>
  <text x="630" y="450" font-family="Arial" font-size="12" text-anchor="middle">ConversationBufferMemory</text>
  <text x="630" y="470" font-family="Arial" font-size="12" text-anchor="middle">Return Source Documents</text>

  <!-- User Interface -->
  <rect x="700" y="100" width="160" height="80" rx="10" ry="10" fill="#f5f5f5" stroke="#595959" stroke-width="2"/>
  <text x="780" y="145" font-family="Arial" font-size="16" font-weight="bold" text-anchor="middle">User Interface</text>
  <text x="780" y="165" font-family="Arial" font-size="12" text-anchor="middle">CLI / Chainlit UI</text>

  <!-- Main Pipeline -->
  <rect x="400" y="100" width="260" height="80" rx="10" ry="10" fill="#e6f4ff" stroke="#1677ff" stroke-width="2"/>
  <text x="530" y="130" font-family="Arial" font-size="16" font-weight="bold" text-anchor="middle">Main Pipeline</text>
  <text x="530" y="150" font-family="Arial" font-size="12" text-anchor="middle">Orchestrates Components</text>
  <text x="530" y="170" font-family="Arial" font-size="12" text-anchor="middle">Handles User Interaction</text>

  <!-- Logging System -->
  <rect x="300" y="520" width="300" height="60" rx="10" ry="10" fill="#f9f0ff" stroke="#531dab" stroke-width="2"/>
  <text x="450" y="550" font-family="Arial" font-size="16" font-weight="bold" text-anchor="middle">Logging System</text>
  <text x="450" y="570" font-family="Arial" font-size="12" text-anchor="middle">File-based Logging with Timestamps</text>

  <!-- Arrows -->
  <!-- Data Flow -->
  <path d="M130 180 L130 220" stroke="#666" stroke-width="2" fill="none" marker-end="url(#arrowhead)"/>
  <path d="M210 360 L300 280" stroke="#666" stroke-width="2" fill="none" marker-end="url(#arrowhead)"/>
  <path d="M380 340 L380 380" stroke="#666" stroke-width="2" fill="none" marker-end="url(#arrowhead)"/>
  <path d="M460 440 L550 440" stroke="#666" stroke-width="2" fill="none" marker-end="url(#arrowhead)"/>
  <path d="M630 340 L630 380" stroke="#666" stroke-width="2" fill="none" marker-end="url(#arrowhead)"/>
  <path d="M630 180 L630 220" stroke="#666" stroke-width="2" fill="none" marker-end="url(#arrowhead)"/>
  <path d="M700 440 L780 180" stroke="#666" stroke-width="2" fill="none" marker-end="url(#arrowhead)"/>
  <path d="M530 180 L530 220" stroke="#666" stroke-width="2" fill="none" marker-end="url(#arrowhead)"/>
  <path d="M530 180 L380 220" stroke="#666" stroke-width="2" fill="none" marker-end="url(#arrowhead)"/>
  <path d="M450 520 L450 500" stroke="#666" stroke-width="2" fill="none" marker-end="url(#arrowhead)"/>

  <!-- Arrowhead marker -->
  <defs>
    <marker id="arrowhead" markerWidth="10" markerHeight="7" refX="9" refY="3.5" orient="auto">
      <polygon points="0 0, 10 3.5, 0 7" fill="#666"/>
    </marker>
  </defs>

  <!-- Integration Labels -->
  <text x="130" y="205" font-family="Arial" font-size="10" fill="#666">Load</text>
  <text x="240" y="330" font-family="Arial" font-size="10" fill="#666">Index</text>
  <text x="380" y="365" font-family="Arial" font-size="10" fill="#666">Query</text>
  <text x="500" y="420" font-family="Arial" font-size="10" fill="#666">Retrieve</text>
  <text x="630" y="365" font-family="Arial" font-size="10" fill="#666">Generate</text>
  <text x="720" y="300" font-family="Arial" font-size="10" fill="#666">Respond</text>
  <text x="450" y="510" font-family="Arial" font-size="10" fill="#666">Log</text>

  <!-- External Services -->
  <rect x="700" y="520" width="160" height="60" rx="10" ry="10" fill="#e6f4ff" stroke="#1677ff" stroke-width="2"/>
  <text x="780" y="550" font-family="Arial" font-size="16" font-weight="bold" text-anchor="middle">LangSmith</text>
  <text x="780" y="570" font-family="Arial" font-size="12" text-anchor="middle">Tracing & Monitoring</text>

  <path d="M660 440 L780 520" stroke="#666" stroke-width="2" fill="none" marker-end="url(#arrowhead)"/>
  <text x="720" y="490" font-family="Arial" font-size="10" fill="#666">Trace</text>
</svg>